<svg xmlns="http://www.w3.org/2000/svg" xmlns:xlink="http://www.w3.org/1999/xlink" width="35" zoomAndPan="magnify" viewBox="0 0 26.25 26.249998" height="35" preserveAspectRatio="xMidYMid meet" version="1.0"><defs><clipPath id="5dadca69ec"><path d="M 0 0 L 25.519531 0 L 25.519531 25.519531 L 0 25.519531 Z M 0 0 " clip-rule="nonzero"/></clipPath></defs><g clip-path="url(#5dadca69ec)"><path fill="#000000" d="M 12.761719 0 C 5.710938 0 0 5.710938 0 12.761719 C 0 19.808594 5.710938 25.519531 12.761719 25.519531 C 19.808594 25.519531 25.519531 19.808594 25.519531 12.761719 C 25.519531 5.710938 19.808594 0 12.761719 0 Z M 17.863281 14.035156 L 10.738281 14.035156 L 12.761719 16.058594 C 13.257812 16.558594 13.257812 17.367188 12.761719 17.863281 C 12.261719 18.363281 11.453125 18.363281 10.957031 17.863281 L 6.753906 13.664062 C 6.253906 13.164062 6.253906 12.355469 6.753906 11.859375 L 10.957031 7.65625 C 11.453125 7.160156 12.261719 7.160156 12.761719 7.65625 C 13.257812 8.152344 13.257812 8.964844 12.761719 9.460938 L 10.738281 11.484375 L 17.863281 11.484375 C 18.570312 11.484375 19.140625 12.054688 19.140625 12.761719 C 19.140625 13.464844 18.570312 14.035156 17.863281 14.035156 Z M 17.863281 14.035156 " fill-opacity="1" fill-rule="nonzero"/><path fill="#000000" d="M 12.761719 0 C 5.710938 0 0 5.710938 0 12.761719 C 0 19.808594 5.710938 25.519531 12.761719 25.519531 C 19.808594 25.519531 25.519531 19.808594 25.519531 12.761719 C 25.519531 5.710938 19.808594 0 12.761719 0 Z M 17.863281 14.035156 L 10.738281 14.035156 L 12.761719 16.058594 C 13.257812 16.558594 13.257812 17.367188 12.761719 17.863281 C 12.261719 18.363281 11.453125 18.363281 10.957031 17.863281 L 6.753906 13.664062 C 6.253906 13.164062 6.253906 12.355469 6.753906 11.859375 L 10.957031 7.65625 C 11.453125 7.160156 12.261719 7.160156 12.761719 7.65625 C 13.257812 8.152344 13.257812 8.964844 12.761719 9.460938 L 10.738281 11.484375 L 17.863281 11.484375 C 18.570312 11.484375 19.140625 12.054688 19.140625 12.761719 C 19.140625 13.464844 18.570312 14.035156 17.863281 14.035156 Z M 17.863281 14.035156 " fill-opacity="1" fill-rule="nonzero"/></g></svg>