<svg xmlns="http://www.w3.org/2000/svg" xmlns:xlink="http://www.w3.org/1999/xlink" width="345" zoomAndPan="magnify" viewBox="0 0 258.75 252.749989" height="337" preserveAspectRatio="xMidYMid meet" version="1.0"><path fill="#8aaebd" d="M 183.261719 39.246094 C 223.203125 39.246094 247.519531 62.558594 253.378906 89.808594 C 258.125 111.882812 250.765625 136.542969 229.792969 153.496094 C 221.195312 160.449219 211.066406 164.777344 200.34375 168.902344 C 165.3125 182.378906 167.082031 180.074219 143.84375 208.574219 C 108.066406 252.453125 32.722656 237.070312 12.320312 187.820312 C 0.152344 158.445312 3.839844 118.546875 48.070312 80.203125 C 75.742188 56.21875 59.582031 13.757812 100.269531 2.976562 C 111.5 0 123.796875 1.191406 132.667969 7.75 C 147.136719 18.449219 153.230469 39.246094 183.261719 39.246094 " fill-opacity="1" fill-rule="evenodd"/><path fill="#8aaebd" d="M 183.261719 39.246094 C 223.203125 39.246094 247.519531 62.558594 253.378906 89.808594 C 258.125 111.882812 250.765625 136.542969 229.792969 153.496094 C 221.195312 160.449219 211.066406 164.777344 200.34375 168.902344 C 165.3125 182.378906 167.082031 180.074219 143.84375 208.574219 C 108.066406 252.453125 32.722656 237.070312 12.320312 187.820312 C 0.152344 158.445312 3.839844 118.546875 48.070312 80.203125 C 75.742188 56.21875 59.582031 13.757812 100.269531 2.976562 C 111.5 0 123.796875 1.191406 132.667969 7.75 C 147.136719 18.449219 153.230469 39.246094 183.261719 39.246094 " fill-opacity="1" fill-rule="evenodd"/></svg>