<svg xmlns="http://www.w3.org/2000/svg" xmlns:xlink="http://www.w3.org/1999/xlink" width="308" zoomAndPan="magnify" viewBox="0 0 230.87999 228.749995" height="305" preserveAspectRatio="xMidYMid meet" version="1.0"><defs><clipPath id="d7c1964fd5"><path d="M 0.0703125 0.183594 L 230.066406 0.183594 L 230.066406 227.9375 L 0.0703125 227.9375 Z M 0.0703125 0.183594 " clip-rule="nonzero"/></clipPath><clipPath id="b30a0b54b4"><path d="M 0.0703125 0.183594 L 230.066406 0.183594 L 230.066406 227 L 0.0703125 227 Z M 0.0703125 0.183594 " clip-rule="nonzero"/></clipPath><clipPath id="bbbd96c294"><path d="M 0.0703125 0.183594 L 230.066406 0.183594 L 230.066406 227.9375 L 0.0703125 227.9375 Z M 0.0703125 0.183594 " clip-rule="nonzero"/></clipPath><clipPath id="ef7e8b5942"><path d="M 0.0703125 0.183594 L 230.066406 0.183594 L 230.066406 227 L 0.0703125 227 Z M 0.0703125 0.183594 " clip-rule="nonzero"/></clipPath></defs><g clip-path="url(#d7c1964fd5)"><path fill="#3c7891" d="M 0.542969 227.863281 L 230.152344 227.929688 C 229.054688 222.617188 227.582031 217.53125 225.734375 212.671875 L 222.675781 205.558594 C 220.449219 200.925781 217.84375 196.523438 214.859375 192.347656 C 209.628906 184.574219 201.417969 176.554688 190.226562 168.28125 C 184.402344 163.941406 176.226562 159.832031 165.695312 155.949219 C 133.835938 147.621094 113.996094 141.679688 106.175781 138.132812 C 99.964844 135.3125 93.734375 130.875 87.480469 124.820312 C 78.714844 115.367188 73.585938 108.265625 72.09375 103.511719 C 69.1875 98.394531 64.265625 81.578125 57.320312 53.054688 C 53.820312 43.539062 48.25 33.359375 40.609375 22.519531 C 37.015625 16.796875 23.683594 9.453125 0.605469 0.496094 Z M 0.542969 227.863281 " fill-opacity="1" fill-rule="nonzero"/></g><g clip-path="url(#b30a0b54b4)"><path fill="#8aaebd" d="M 1.773438 0.660156 C 8.914062 18.914062 15.957031 36.832031 33.746094 47.25 C 39.242188 50.46875 45.777344 52.980469 52.863281 55.703125 C 61 58.828125 69.828125 62.214844 78.402344 67.234375 C 86.5625 72.015625 94.503906 78.277344 101.457031 87.21875 C 111.933594 100.691406 120.125 120.226562 128.253906 139.585938 C 136.09375 158.261719 143.875 176.785156 153.597656 189.894531 C 173.355469 216.535156 201.210938 220.910156 229.457031 225.3125 C 229.90625 225.382812 230.210938 225.804688 230.140625 226.253906 C 230.070312 226.703125 229.652344 227.011719 229.203125 226.941406 C 201.035156 222.550781 172.484375 218.125 152.277344 190.875 C 142.410156 177.570312 134.550781 158.839844 126.734375 140.222656 C 118.578125 120.796875 110.46875 101.496094 100.15625 88.230469 C 93.355469 79.480469 85.585938 73.351562 77.570312 68.65625 C 69.128906 63.714844 60.425781 60.367188 52.273438 57.238281 C 45.21875 54.53125 38.546875 51.96875 32.914062 48.671875 C 14.558594 37.921875 7.347656 19.421875 0.238281 1.257812 C 0.0742188 0.835938 0.28125 0.355469 0.707031 0.191406 C 1.128906 0.0273438 1.609375 0.234375 1.773438 0.660156 Z M 1.773438 0.660156 " fill-opacity="1" fill-rule="nonzero"/></g><g clip-path="url(#bbbd96c294)"><path fill="#3c7891" d="M 0.542969 227.863281 L 230.152344 227.929688 C 229.054688 222.617188 227.582031 217.53125 225.734375 212.671875 L 222.675781 205.558594 C 220.449219 200.925781 217.84375 196.523438 214.859375 192.347656 C 209.628906 184.574219 201.417969 176.554688 190.226562 168.28125 C 184.402344 163.941406 176.226562 159.832031 165.695312 155.949219 C 133.835938 147.621094 113.996094 141.679688 106.175781 138.132812 C 99.964844 135.3125 93.734375 130.875 87.480469 124.820312 C 78.714844 115.367188 73.585938 108.265625 72.09375 103.511719 C 69.1875 98.394531 64.265625 81.578125 57.320312 53.054688 C 53.820312 43.539062 48.25 33.359375 40.609375 22.519531 C 37.015625 16.796875 23.683594 9.453125 0.605469 0.496094 Z M 0.542969 227.863281 " fill-opacity="1" fill-rule="nonzero"/></g><g clip-path="url(#ef7e8b5942)"><path fill="#8aaebd" d="M 1.773438 0.660156 C 8.914062 18.914062 15.957031 36.832031 33.746094 47.25 C 39.242188 50.46875 45.777344 52.980469 52.863281 55.703125 C 61 58.828125 69.828125 62.214844 78.402344 67.234375 C 86.5625 72.015625 94.503906 78.277344 101.457031 87.21875 C 111.933594 100.691406 120.125 120.226562 128.253906 139.585938 C 136.09375 158.261719 143.875 176.785156 153.597656 189.894531 C 173.355469 216.535156 201.210938 220.910156 229.457031 225.3125 C 229.90625 225.382812 230.210938 225.804688 230.140625 226.253906 C 230.070312 226.703125 229.652344 227.011719 229.203125 226.941406 C 201.035156 222.550781 172.484375 218.125 152.277344 190.875 C 142.410156 177.570312 134.550781 158.839844 126.734375 140.222656 C 118.578125 120.796875 110.46875 101.496094 100.15625 88.230469 C 93.355469 79.480469 85.585938 73.351562 77.570312 68.65625 C 69.128906 63.714844 60.425781 60.367188 52.273438 57.238281 C 45.21875 54.53125 38.546875 51.96875 32.914062 48.671875 C 14.558594 37.921875 7.347656 19.421875 0.238281 1.257812 C 0.0742188 0.835938 0.28125 0.355469 0.707031 0.191406 C 1.128906 0.0273438 1.609375 0.234375 1.773438 0.660156 Z M 1.773438 0.660156 " fill-opacity="1" fill-rule="nonzero"/></g></svg>