<svg xmlns="http://www.w3.org/2000/svg" xmlns:xlink="http://www.w3.org/1999/xlink" width="294" zoomAndPan="magnify" viewBox="0 0 220.5 207.000001" height="276" preserveAspectRatio="xMidYMid meet" version="1.0"><defs><clipPath id="b74b38e229"><path d="M 0.28125 25 L 216 25 L 216 202 L 0.28125 202 Z M 0.28125 25 " clip-rule="nonzero"/></clipPath><clipPath id="36299f63f7"><path d="M 0.28125 0 L 216 0 L 216 202 L 0.28125 202 Z M 0.28125 0 " clip-rule="nonzero"/></clipPath><clipPath id="90efa155e8"><path d="M 0.28125 8 L 218.976562 8 L 218.976562 205.816406 L 0.28125 205.816406 Z M 0.28125 8 " clip-rule="nonzero"/></clipPath><clipPath id="5bb48af21c"><path d="M 0.28125 25 L 216 25 L 216 202 L 0.28125 202 Z M 0.28125 25 " clip-rule="nonzero"/></clipPath><clipPath id="099b067e6e"><path d="M 0.28125 0 L 216 0 L 216 202 L 0.28125 202 Z M 0.28125 0 " clip-rule="nonzero"/></clipPath><clipPath id="bec97400e8"><path d="M 0.28125 8 L 218.976562 8 L 218.976562 205.816406 L 0.28125 205.816406 Z M 0.28125 8 " clip-rule="nonzero"/></clipPath></defs><g clip-path="url(#b74b38e229)"><path fill="#8aaebd" d="M 69.648438 25.03125 C 55.753906 25.03125 43.691406 28.890625 33.453125 36.601562 C 33.4375 36.617188 33.421875 36.628906 33.40625 36.644531 C 22.238281 46.410156 16.113281 58.023438 15.027344 71.484375 C 15.027344 71.496094 15.027344 71.507812 15.027344 71.519531 C 14.832031 76.285156 15.5 81.570312 17.035156 87.371094 C 17.042969 87.394531 17.046875 87.417969 17.054688 87.4375 C 25.105469 110.324219 29.140625 123.5 29.167969 126.976562 C 29.167969 127.019531 29.171875 127.0625 29.175781 127.105469 C 30.636719 136.363281 30.445312 144.792969 28.605469 152.390625 C 28.601562 152.402344 28.597656 152.417969 28.59375 152.429688 C 25.90625 166.597656 15.210938 182.828125 -3.5 201.125 L -3.335938 201.125 C -3.292969 201.125 -3.253906 201.109375 -3.222656 201.082031 C 15.40625 182.824219 26.066406 166.617188 28.75 152.460938 C 28.753906 152.449219 28.757812 152.4375 28.757812 152.425781 C 30.605469 144.808594 30.796875 136.359375 29.335938 127.078125 C 29.328125 127.042969 29.328125 127.007812 29.328125 126.972656 C 29.300781 123.484375 25.261719 110.285156 17.207031 87.386719 C 17.199219 87.367188 17.195312 87.351562 17.191406 87.332031 C 15.660156 81.542969 14.992188 76.273438 15.1875 71.523438 C 15.1875 71.515625 15.1875 71.507812 15.1875 71.496094 C 16.269531 58.078125 22.378906 46.5 33.511719 36.761719 C 33.523438 36.75 33.535156 36.742188 33.550781 36.730469 C 43.757812 29.039062 55.792969 25.191406 69.648438 25.191406 C 71.617188 25.191406 73.625 25.269531 75.667969 25.425781 C 75.675781 25.425781 75.6875 25.425781 75.699219 25.429688 C 83.808594 26.40625 92.382812 28.386719 101.421875 31.371094 C 101.441406 31.378906 101.457031 31.386719 101.476562 31.390625 C 130.0625 43.398438 145.363281 49.449219 147.371094 49.554688 C 147.375 49.554688 147.375 49.554688 147.378906 49.554688 C 147.390625 49.554688 147.40625 49.550781 147.417969 49.546875 C 147.472656 49.535156 147.53125 49.527344 147.589844 49.527344 C 147.65625 49.527344 147.726562 49.539062 147.796875 49.558594 C 155.070312 51.777344 161.976562 52.890625 168.515625 52.890625 C 169.667969 52.890625 170.8125 52.855469 171.945312 52.785156 C 171.953125 52.785156 171.960938 52.785156 171.964844 52.785156 C 194.640625 48.691406 209.035156 40.164062 215.152344 27.195312 C 215.171875 27.171875 215.183594 27.136719 215.183594 27.101562 L 215.183594 26.757812 L 215.179688 26.757812 C 209.1875 39.882812 194.773438 48.507812 171.9375 52.625 L 171.933594 52.625 C 170.808594 52.695312 169.667969 52.730469 168.515625 52.730469 C 161.992188 52.730469 155.101562 51.621094 147.839844 49.40625 C 147.757812 49.378906 147.671875 49.367188 147.589844 49.367188 C 147.519531 49.367188 147.449219 49.375 147.378906 49.394531 C 145.390625 49.292969 130.109375 43.242188 101.539062 31.246094 C 101.515625 31.234375 101.496094 31.226562 101.472656 31.222656 C 92.425781 28.230469 83.839844 26.246094 75.71875 25.269531 C 75.703125 25.269531 75.691406 25.265625 75.679688 25.265625 C 73.632812 25.109375 71.621094 25.03125 69.648438 25.03125 Z M 69.648438 25.03125 " fill-opacity="1" fill-rule="nonzero"/></g><g clip-path="url(#36299f63f7)"><path fill="#8aaebd" d="M -9.097656 -23.316406 C -9.140625 -23.316406 -9.179688 -23.296875 -9.210938 -23.269531 C -9.242188 -23.238281 -9.257812 -23.195312 -9.257812 -23.15625 L -9.257812 200.964844 C -9.257812 201.054688 -9.1875 201.125 -9.097656 201.125 L -3.335938 201.125 C -3.292969 201.125 -3.253906 201.109375 -3.222656 201.082031 L -3.226562 201.082031 C 15.40625 182.824219 26.066406 166.617188 28.75 152.460938 C 28.753906 152.449219 28.757812 152.4375 28.757812 152.425781 C 30.605469 144.808594 30.796875 136.359375 29.335938 127.078125 C 29.328125 127.042969 29.328125 127.007812 29.328125 126.972656 C 29.300781 123.484375 25.261719 110.285156 17.207031 87.386719 C 17.199219 87.367188 17.195312 87.351562 17.191406 87.332031 C 15.660156 81.542969 14.992188 76.273438 15.1875 71.523438 C 15.1875 71.515625 15.1875 71.507812 15.1875 71.496094 C 16.269531 58.078125 22.378906 46.5 33.511719 36.761719 C 33.523438 36.75 33.535156 36.742188 33.550781 36.730469 C 43.757812 29.039062 55.792969 25.191406 69.648438 25.191406 C 71.617188 25.191406 73.625 25.269531 75.667969 25.425781 C 75.675781 25.425781 75.6875 25.425781 75.699219 25.429688 C 83.808594 26.40625 92.382812 28.386719 101.421875 31.371094 C 101.441406 31.378906 101.457031 31.386719 101.476562 31.390625 C 130.0625 43.398438 145.363281 49.449219 147.371094 49.554688 C 147.375 49.554688 147.375 49.554688 147.378906 49.554688 C 147.390625 49.554688 147.40625 49.550781 147.417969 49.546875 C 147.472656 49.535156 147.53125 49.527344 147.589844 49.527344 C 147.65625 49.527344 147.726562 49.539062 147.796875 49.558594 C 155.070312 51.777344 161.976562 52.890625 168.515625 52.890625 C 169.667969 52.890625 170.8125 52.855469 171.945312 52.785156 C 171.953125 52.785156 171.960938 52.785156 171.964844 52.785156 C 194.640625 48.691406 209.035156 40.164062 215.152344 27.195312 C 215.171875 27.171875 215.183594 27.136719 215.183594 27.101562 L 215.183594 -23.15625 C 215.183594 -23.242188 215.109375 -23.316406 215.023438 -23.316406 Z M -9.097656 -23.316406 " fill-opacity="1" fill-rule="nonzero"/></g><g clip-path="url(#90efa155e8)"><path fill="#3c7891" d="M 147.316406 56.667969 C 147.261719 56.699219 147.207031 56.738281 147.160156 56.785156 C 147.210938 56.734375 147.261719 56.699219 147.316406 56.667969 Z M 218.359375 8.214844 C 217.925781 8.214844 217.550781 8.539062 217.496094 8.980469 C 213.925781 38.929688 200.335938 56.496094 176.722656 61.679688 C 174.765625 61.898438 172.820312 62.007812 170.890625 62.007812 C 163.085938 62.007812 155.496094 60.21875 148.125 56.640625 C 148.003906 56.582031 147.875 56.554688 147.746094 56.554688 C 147.65625 56.554688 147.566406 56.570312 147.476562 56.597656 C 145.03125 56.203125 129.1875 46.152344 99.945312 26.4375 C 99.929688 26.425781 99.910156 26.414062 99.890625 26.402344 C 93.699219 22.847656 87.230469 20.339844 80.488281 18.890625 C 76.160156 17.925781 71.929688 17.441406 67.792969 17.441406 C 54.4375 17.441406 42.078125 22.480469 30.71875 32.558594 C 30.710938 32.566406 30.703125 32.570312 30.695312 32.578125 C 14.496094 48 4.890625 65.582031 1.878906 85.324219 C 1.875 85.339844 1.871094 85.359375 1.871094 85.378906 C 1.242188 92.511719 1.847656 99.273438 3.691406 105.660156 C 3.703125 105.695312 3.714844 105.730469 3.730469 105.765625 C 14.574219 130.792969 19.78125 144.277344 19.347656 146.226562 C 19.320312 146.34375 19.316406 146.46875 19.34375 146.589844 C 20.695312 153.195312 20.617188 160.113281 19.113281 167.335938 L 19.109375 167.339844 C 16.414062 180.71875 7.09375 193.058594 -8.859375 204.367188 C -9.25 204.644531 -9.34375 205.183594 -9.066406 205.578125 C -8.898438 205.816406 -8.628906 205.941406 -8.359375 205.941406 C -8.183594 205.941406 -8.007812 205.890625 -7.855469 205.78125 C 8.46875 194.210938 18.023438 181.511719 20.808594 167.6875 C 22.351562 160.28125 22.441406 153.175781 21.070312 146.375 C 21.25 143.488281 16.007812 129.738281 5.34375 105.128906 C 3.574219 98.976562 2.992188 92.453125 3.59375 85.566406 C 6.550781 66.226562 15.976562 48.988281 31.875 33.847656 C 42.902344 24.070312 54.886719 19.179688 67.832031 19.179688 C 71.832031 19.179688 75.925781 19.648438 80.109375 20.582031 L 80.113281 20.582031 C 86.675781 21.996094 92.972656 24.433594 99.003906 27.894531 C 128.867188 48.027344 145.019531 58.175781 147.453125 58.335938 C 147.488281 58.339844 147.523438 58.339844 147.5625 58.339844 C 147.59375 58.339844 147.625 58.339844 147.652344 58.339844 L 147.65625 58.339844 C 155.175781 61.941406 162.917969 63.742188 170.882812 63.742188 C 172.894531 63.742188 174.921875 63.628906 176.960938 63.398438 C 176.992188 63.394531 177.019531 63.390625 177.050781 63.382812 C 201.492188 58.039062 215.550781 39.972656 219.21875 9.183594 C 219.277344 8.710938 218.9375 8.277344 218.460938 8.222656 C 218.425781 8.21875 218.390625 8.214844 218.359375 8.214844 Z M 218.359375 8.214844 " fill-opacity="1" fill-rule="nonzero"/></g><g clip-path="url(#5bb48af21c)"><path fill="#8aaebd" d="M 69.648438 25.03125 C 55.753906 25.03125 43.691406 28.890625 33.453125 36.601562 C 33.4375 36.617188 33.421875 36.628906 33.40625 36.644531 C 22.238281 46.410156 16.113281 58.023438 15.027344 71.484375 C 15.027344 71.496094 15.027344 71.507812 15.027344 71.519531 C 14.832031 76.285156 15.5 81.570312 17.035156 87.371094 C 17.042969 87.394531 17.046875 87.417969 17.054688 87.4375 C 25.105469 110.324219 29.140625 123.5 29.167969 126.976562 C 29.167969 127.019531 29.171875 127.0625 29.175781 127.105469 C 30.636719 136.363281 30.445312 144.792969 28.605469 152.390625 C 28.601562 152.402344 28.597656 152.417969 28.59375 152.429688 C 25.90625 166.597656 15.210938 182.828125 -3.5 201.125 L -3.335938 201.125 C -3.292969 201.125 -3.253906 201.109375 -3.222656 201.082031 C 15.40625 182.824219 26.066406 166.617188 28.75 152.460938 C 28.753906 152.449219 28.757812 152.4375 28.757812 152.425781 C 30.605469 144.808594 30.796875 136.359375 29.335938 127.078125 C 29.328125 127.042969 29.328125 127.007812 29.328125 126.972656 C 29.300781 123.484375 25.261719 110.285156 17.207031 87.386719 C 17.199219 87.367188 17.195312 87.351562 17.191406 87.332031 C 15.660156 81.542969 14.992188 76.273438 15.1875 71.523438 C 15.1875 71.515625 15.1875 71.507812 15.1875 71.496094 C 16.269531 58.078125 22.378906 46.5 33.511719 36.761719 C 33.523438 36.75 33.535156 36.742188 33.550781 36.730469 C 43.757812 29.039062 55.792969 25.191406 69.648438 25.191406 C 71.617188 25.191406 73.625 25.269531 75.667969 25.425781 C 75.675781 25.425781 75.6875 25.425781 75.699219 25.429688 C 83.808594 26.40625 92.382812 28.386719 101.421875 31.371094 C 101.441406 31.378906 101.457031 31.386719 101.476562 31.390625 C 130.0625 43.398438 145.363281 49.449219 147.371094 49.554688 C 147.375 49.554688 147.375 49.554688 147.378906 49.554688 C 147.390625 49.554688 147.40625 49.550781 147.417969 49.546875 C 147.472656 49.535156 147.53125 49.527344 147.589844 49.527344 C 147.65625 49.527344 147.726562 49.539062 147.796875 49.558594 C 155.070312 51.777344 161.976562 52.890625 168.515625 52.890625 C 169.667969 52.890625 170.8125 52.855469 171.945312 52.785156 C 171.953125 52.785156 171.960938 52.785156 171.964844 52.785156 C 194.640625 48.691406 209.035156 40.164062 215.152344 27.195312 C 215.171875 27.171875 215.183594 27.136719 215.183594 27.101562 L 215.183594 26.757812 L 215.179688 26.757812 C 209.1875 39.882812 194.773438 48.507812 171.9375 52.625 L 171.933594 52.625 C 170.808594 52.695312 169.667969 52.730469 168.515625 52.730469 C 161.992188 52.730469 155.101562 51.621094 147.839844 49.40625 C 147.757812 49.378906 147.671875 49.367188 147.589844 49.367188 C 147.519531 49.367188 147.449219 49.375 147.378906 49.394531 C 145.390625 49.292969 130.109375 43.242188 101.539062 31.246094 C 101.515625 31.234375 101.496094 31.226562 101.472656 31.222656 C 92.425781 28.230469 83.839844 26.246094 75.71875 25.269531 C 75.703125 25.269531 75.691406 25.265625 75.679688 25.265625 C 73.632812 25.109375 71.621094 25.03125 69.648438 25.03125 Z M 69.648438 25.03125 " fill-opacity="1" fill-rule="nonzero"/></g><g clip-path="url(#099b067e6e)"><path fill="#8aaebd" d="M -9.097656 -23.316406 C -9.140625 -23.316406 -9.179688 -23.296875 -9.210938 -23.269531 C -9.242188 -23.238281 -9.257812 -23.195312 -9.257812 -23.15625 L -9.257812 200.964844 C -9.257812 201.054688 -9.1875 201.125 -9.097656 201.125 L -3.335938 201.125 C -3.292969 201.125 -3.253906 201.109375 -3.222656 201.082031 L -3.226562 201.082031 C 15.40625 182.824219 26.066406 166.617188 28.75 152.460938 C 28.753906 152.449219 28.757812 152.4375 28.757812 152.425781 C 30.605469 144.808594 30.796875 136.359375 29.335938 127.078125 C 29.328125 127.042969 29.328125 127.007812 29.328125 126.972656 C 29.300781 123.484375 25.261719 110.285156 17.207031 87.386719 C 17.199219 87.367188 17.195312 87.351562 17.191406 87.332031 C 15.660156 81.542969 14.992188 76.273438 15.1875 71.523438 C 15.1875 71.515625 15.1875 71.507812 15.1875 71.496094 C 16.269531 58.078125 22.378906 46.5 33.511719 36.761719 C 33.523438 36.75 33.535156 36.742188 33.550781 36.730469 C 43.757812 29.039062 55.792969 25.191406 69.648438 25.191406 C 71.617188 25.191406 73.625 25.269531 75.667969 25.425781 C 75.675781 25.425781 75.6875 25.425781 75.699219 25.429688 C 83.808594 26.40625 92.382812 28.386719 101.421875 31.371094 C 101.441406 31.378906 101.457031 31.386719 101.476562 31.390625 C 130.0625 43.398438 145.363281 49.449219 147.371094 49.554688 C 147.375 49.554688 147.375 49.554688 147.378906 49.554688 C 147.390625 49.554688 147.40625 49.550781 147.417969 49.546875 C 147.472656 49.535156 147.53125 49.527344 147.589844 49.527344 C 147.65625 49.527344 147.726562 49.539062 147.796875 49.558594 C 155.070312 51.777344 161.976562 52.890625 168.515625 52.890625 C 169.667969 52.890625 170.8125 52.855469 171.945312 52.785156 C 171.953125 52.785156 171.960938 52.785156 171.964844 52.785156 C 194.640625 48.691406 209.035156 40.164062 215.152344 27.195312 C 215.171875 27.171875 215.183594 27.136719 215.183594 27.101562 L 215.183594 -23.15625 C 215.183594 -23.242188 215.109375 -23.316406 215.023438 -23.316406 Z M -9.097656 -23.316406 " fill-opacity="1" fill-rule="nonzero"/></g><g clip-path="url(#bec97400e8)"><path fill="#3c7891" d="M 147.316406 56.667969 C 147.261719 56.699219 147.207031 56.738281 147.160156 56.785156 C 147.210938 56.734375 147.261719 56.699219 147.316406 56.667969 Z M 218.359375 8.214844 C 217.925781 8.214844 217.550781 8.539062 217.496094 8.980469 C 213.925781 38.929688 200.335938 56.496094 176.722656 61.679688 C 174.765625 61.898438 172.820312 62.007812 170.890625 62.007812 C 163.085938 62.007812 155.496094 60.21875 148.125 56.640625 C 148.003906 56.582031 147.875 56.554688 147.746094 56.554688 C 147.65625 56.554688 147.566406 56.570312 147.476562 56.597656 C 145.03125 56.203125 129.1875 46.152344 99.945312 26.4375 C 99.929688 26.425781 99.910156 26.414062 99.890625 26.402344 C 93.699219 22.847656 87.230469 20.339844 80.488281 18.890625 C 76.160156 17.925781 71.929688 17.441406 67.792969 17.441406 C 54.4375 17.441406 42.078125 22.480469 30.71875 32.558594 C 30.710938 32.566406 30.703125 32.570312 30.695312 32.578125 C 14.496094 48 4.890625 65.582031 1.878906 85.324219 C 1.875 85.339844 1.871094 85.359375 1.871094 85.378906 C 1.242188 92.511719 1.847656 99.273438 3.691406 105.660156 C 3.703125 105.695312 3.714844 105.730469 3.730469 105.765625 C 14.574219 130.792969 19.78125 144.277344 19.347656 146.226562 C 19.320312 146.34375 19.316406 146.46875 19.34375 146.589844 C 20.695312 153.195312 20.617188 160.113281 19.113281 167.335938 L 19.109375 167.339844 C 16.414062 180.71875 7.09375 193.058594 -8.859375 204.367188 C -9.25 204.644531 -9.34375 205.183594 -9.066406 205.578125 C -8.898438 205.816406 -8.628906 205.941406 -8.359375 205.941406 C -8.183594 205.941406 -8.007812 205.890625 -7.855469 205.78125 C 8.46875 194.210938 18.023438 181.511719 20.808594 167.6875 C 22.351562 160.28125 22.441406 153.175781 21.070312 146.375 C 21.25 143.488281 16.007812 129.738281 5.34375 105.128906 C 3.574219 98.976562 2.992188 92.453125 3.59375 85.566406 C 6.550781 66.226562 15.976562 48.988281 31.875 33.847656 C 42.902344 24.070312 54.886719 19.179688 67.832031 19.179688 C 71.832031 19.179688 75.925781 19.648438 80.109375 20.582031 L 80.113281 20.582031 C 86.675781 21.996094 92.972656 24.433594 99.003906 27.894531 C 128.867188 48.027344 145.019531 58.175781 147.453125 58.335938 C 147.488281 58.339844 147.523438 58.339844 147.5625 58.339844 C 147.59375 58.339844 147.625 58.339844 147.652344 58.339844 L 147.65625 58.339844 C 155.175781 61.941406 162.917969 63.742188 170.882812 63.742188 C 172.894531 63.742188 174.921875 63.628906 176.960938 63.398438 C 176.992188 63.394531 177.019531 63.390625 177.050781 63.382812 C 201.492188 58.039062 215.550781 39.972656 219.21875 9.183594 C 219.277344 8.710938 218.9375 8.277344 218.460938 8.222656 C 218.425781 8.21875 218.390625 8.214844 218.359375 8.214844 Z M 218.359375 8.214844 " fill-opacity="1" fill-rule="nonzero"/></g></svg>