<svg xmlns="http://www.w3.org/2000/svg" xmlns:xlink="http://www.w3.org/1999/xlink" width="329" zoomAndPan="magnify" viewBox="0 0 246.75 203.999996" height="272" preserveAspectRatio="xMidYMid meet" version="1.0"><defs><clipPath id="00a0bd1e7f"><path d="M 0.101562 0.464844 L 191.808594 0.464844 L 191.808594 203.507812 L 0.101562 203.507812 Z M 0.101562 0.464844 " clip-rule="nonzero"/></clipPath><clipPath id="89c63edb2a"><path d="M 16.304688 0.464844 L 192.277344 0.464844 L 192.277344 203.507812 L 16.304688 203.507812 Z M 16.304688 0.464844 " clip-rule="nonzero"/></clipPath></defs><g clip-path="url(#00a0bd1e7f)"><path fill="#3c7891" d="M 0.105469 0.101562 C 2.695312 19.84375 13.351562 38.007812 31.253906 48.6875 C 46.25 57.632812 63.386719 62.144531 79.972656 67.609375 C 94.402344 72.359375 109.410156 78.535156 118.199219 90.921875 C 128.269531 105.113281 127.84375 123.878906 128.476562 141.265625 C 129.699219 174.625 146.09375 198.53125 180.253906 202.949219 C 183.757812 203.398438 216.601562 204.394531 230.089844 201.722656 L 230.089844 71.59375 C 224.925781 73.09375 219.496094 74.726562 215.144531 76.152344 C 203.050781 80.109375 182.070312 74.566406 175.378906 50.808594 C 168.691406 27.058594 139.308594 24.683594 109.214844 17.550781 C 98.871094 15.101562 93.203125 8.160156 90.226562 0.101562 L 0.105469 0.101562 " fill-opacity="1" fill-rule="nonzero"/></g><g clip-path="url(#89c63edb2a)"><path fill="#8aaebd" d="M 16.308594 0.101562 C 18.898438 19.84375 29.554688 38.011719 47.457031 48.6875 C 62.453125 57.632812 79.589844 62.144531 96.175781 67.609375 C 110.609375 72.359375 125.613281 78.539062 134.402344 90.925781 C 144.472656 105.113281 144.046875 123.882812 144.683594 141.265625 C 145.902344 174.625 162.296875 198.53125 196.457031 202.949219 C 199.960938 203.398438 232.808594 204.394531 246.292969 201.722656 L 246.292969 71.59375 C 241.128906 73.097656 235.699219 74.726562 231.347656 76.152344 C 219.253906 80.109375 198.273438 74.570312 191.582031 50.8125 C 184.894531 27.058594 155.511719 24.683594 125.421875 17.554688 C 115.074219 15.101562 109.40625 8.160156 106.429688 0.101562 L 16.308594 0.101562 " fill-opacity="1" fill-rule="nonzero"/></g></svg>