<svg xmlns="http://www.w3.org/2000/svg" xmlns:xlink="http://www.w3.org/1999/xlink" width="97" zoomAndPan="magnify" viewBox="0 0 72.75 50.249999" height="67" preserveAspectRatio="xMidYMid meet" version="1.0"><defs><clipPath id="7f48be3001"><path d="M 0.769531 0 L 71.351562 0 L 71.351562 49.511719 L 0.769531 49.511719 Z M 0.769531 0 " clip-rule="nonzero"/></clipPath><clipPath id="35f54321c5"><path d="M 0.769531 0 L 71.351562 0 L 71.351562 49.511719 L 0.769531 49.511719 Z M 0.769531 0 " clip-rule="nonzero"/></clipPath></defs><path fill="#3c7891" d="M 35.363281 29.09375 C 35.808594 29.09375 36.25 29.023438 36.691406 28.878906 L 57.046875 22.089844 C 57.414062 23.050781 57.597656 24.285156 57.597656 26.089844 C 56.269531 26.859375 54.976562 28.40625 54.976562 31.070312 C 54.976562 32.703125 55.792969 33.878906 56.496094 34.65625 C 53.476562 38.160156 45.164062 40.679688 35.359375 40.679688 C 23.003906 40.679688 12.992188 36.679688 12.992188 31.757812 C 12.992188 30.671875 12.992188 26.226562 12.992188 21.863281 L 34.039062 28.878906 C 34.472656 29.023438 34.914062 29.09375 35.363281 29.09375 Z M 35.363281 29.09375 " fill-opacity="1" fill-rule="nonzero"/><g clip-path="url(#7f48be3001)"><path fill="#3c7891" d="M 1.367188 11.484375 L 34.921875 0.300781 C 35.210938 0.203125 35.515625 0.203125 35.804688 0.300781 L 69.355469 11.484375 C 69.925781 11.671875 70.3125 12.207031 70.3125 12.808594 C 70.3125 13.410156 69.925781 13.945312 69.355469 14.132812 L 61.664062 16.699219 C 63.433594 18.75 64.464844 21.644531 64.839844 26.351562 C 66.058594 26.925781 66.914062 28.148438 66.914062 29.585938 C 66.914062 31.046875 66.039062 32.292969 64.785156 32.855469 C 65.878906 42.375 71.578125 45.546875 71.578125 46.363281 C 71.578125 46.773438 67.164062 49.15625 66.117188 49.15625 C 64.496094 49.15625 60.601562 46.40625 60.601562 40.464844 C 60.601562 36.964844 60.917969 34.320312 61.25 32.441406 C 60.351562 31.792969 59.730469 30.78125 59.730469 29.585938 C 59.730469 28.28125 60.460938 27.1875 61.503906 26.558594 C 60.914062 18.789062 58.511719 17.488281 52.699219 15.078125 C 52.117188 14.851562 51.019531 14.40625 50.386719 14.140625 C 49.246094 13.671875 48.214844 13.253906 47.222656 12.855469 C 44.027344 11.585938 41.328125 10.566406 39.265625 9.808594 C 37.007812 9.003906 35.996094 8.710938 35.960938 8.699219 C 35.097656 8.40625 34.136719 8.875 33.839844 9.753906 C 33.542969 10.632812 34.015625 11.585938 34.894531 11.878906 C 34.960938 11.902344 38.886719 13.023438 49.101562 17.246094 C 49.757812 17.515625 50.386719 17.761719 50.980469 18 C 52.191406 18.476562 53.195312 18.859375 54.035156 19.246094 L 35.804688 25.320312 C 35.660156 25.367188 35.511719 25.390625 35.363281 25.390625 C 35.210938 25.390625 35.066406 25.367188 34.921875 25.316406 L 1.367188 14.132812 C 0.796875 13.945312 0.410156 13.410156 0.410156 12.808594 C 0.410156 12.207031 0.796875 11.671875 1.367188 11.484375 Z M 1.367188 11.484375 " fill-opacity="1" fill-rule="nonzero"/></g><path fill="#3c7891" d="M 35.363281 29.09375 C 35.808594 29.09375 36.25 29.023438 36.691406 28.878906 L 57.046875 22.089844 C 57.414062 23.050781 57.597656 24.285156 57.597656 26.089844 C 56.269531 26.859375 54.976562 28.40625 54.976562 31.070312 C 54.976562 32.703125 55.792969 33.878906 56.496094 34.65625 C 53.476562 38.160156 45.164062 40.679688 35.359375 40.679688 C 23.003906 40.679688 12.992188 36.679688 12.992188 31.757812 C 12.992188 30.671875 12.992188 26.226562 12.992188 21.863281 L 34.039062 28.878906 C 34.472656 29.023438 34.914062 29.09375 35.363281 29.09375 Z M 35.363281 29.09375 " fill-opacity="1" fill-rule="nonzero"/><g clip-path="url(#35f54321c5)"><path fill="#3c7891" d="M 1.367188 11.484375 L 34.921875 0.300781 C 35.210938 0.203125 35.515625 0.203125 35.804688 0.300781 L 69.355469 11.484375 C 69.925781 11.671875 70.3125 12.207031 70.3125 12.808594 C 70.3125 13.410156 69.925781 13.945312 69.355469 14.132812 L 61.664062 16.699219 C 63.433594 18.75 64.464844 21.644531 64.839844 26.351562 C 66.058594 26.925781 66.914062 28.148438 66.914062 29.585938 C 66.914062 31.046875 66.039062 32.292969 64.785156 32.855469 C 65.878906 42.375 71.578125 45.546875 71.578125 46.363281 C 71.578125 46.773438 67.164062 49.15625 66.117188 49.15625 C 64.496094 49.15625 60.601562 46.40625 60.601562 40.464844 C 60.601562 36.964844 60.917969 34.320312 61.25 32.441406 C 60.351562 31.792969 59.730469 30.78125 59.730469 29.585938 C 59.730469 28.28125 60.460938 27.1875 61.503906 26.558594 C 60.914062 18.789062 58.511719 17.488281 52.699219 15.078125 C 52.117188 14.851562 51.019531 14.40625 50.386719 14.140625 C 49.246094 13.671875 48.214844 13.253906 47.222656 12.855469 C 44.027344 11.585938 41.328125 10.566406 39.265625 9.808594 C 37.007812 9.003906 35.996094 8.710938 35.960938 8.699219 C 35.097656 8.40625 34.136719 8.875 33.839844 9.753906 C 33.542969 10.632812 34.015625 11.585938 34.894531 11.878906 C 34.960938 11.902344 38.886719 13.023438 49.101562 17.246094 C 49.757812 17.515625 50.386719 17.761719 50.980469 18 C 52.191406 18.476562 53.195312 18.859375 54.035156 19.246094 L 35.804688 25.320312 C 35.660156 25.367188 35.511719 25.390625 35.363281 25.390625 C 35.210938 25.390625 35.066406 25.367188 34.921875 25.316406 L 1.367188 14.132812 C 0.796875 13.945312 0.410156 13.410156 0.410156 12.808594 C 0.410156 12.207031 0.796875 11.671875 1.367188 11.484375 Z M 1.367188 11.484375 " fill-opacity="1" fill-rule="nonzero"/></g></svg>