<svg xmlns="http://www.w3.org/2000/svg" xmlns:xlink="http://www.w3.org/1999/xlink" width="956" zoomAndPan="magnify" viewBox="0 0 717 257.99999" height="344" preserveAspectRatio="xMidYMid meet" version="1.0"><defs><g/><clipPath id="5f63a3633f"><path d="M 499.835938 26.128906 L 603.746094 26.128906 L 603.746094 98 L 499.835938 98 Z M 499.835938 26.128906 " clip-rule="nonzero"/></clipPath></defs><rect x="-71.7" width="860.4" fill="#ffffff" y="-25.799999" height="309.599987" fill-opacity="1"/><path fill="#3c7891" d="M 550.773438 68.53125 C 551.425781 68.53125 552.066406 68.429688 552.707031 68.222656 L 582.371094 58.328125 C 582.910156 59.726562 583.179688 61.527344 583.179688 64.15625 C 581.242188 65.277344 579.355469 67.53125 579.355469 71.414062 C 579.355469 73.792969 580.546875 75.503906 581.570312 76.640625 C 577.167969 81.746094 565.058594 85.417969 550.769531 85.417969 C 532.761719 85.417969 518.167969 79.589844 518.167969 72.414062 C 518.167969 70.832031 518.167969 64.355469 518.167969 58 L 548.84375 68.222656 C 549.476562 68.429688 550.121094 68.53125 550.773438 68.53125 Z M 550.773438 68.53125 " fill-opacity="1" fill-rule="nonzero"/><g clip-path="url(#5f63a3633f)"><path fill="#3c7891" d="M 501.230469 42.867188 L 550.128906 26.570312 C 550.550781 26.429688 550.996094 26.429688 551.414062 26.570312 L 600.316406 42.867188 C 601.144531 43.144531 601.707031 43.925781 601.707031 44.800781 C 601.707031 45.675781 601.144531 46.453125 600.316406 46.730469 L 589.105469 50.46875 C 591.683594 53.460938 593.183594 57.675781 593.734375 64.539062 C 595.507812 65.375 596.757812 67.15625 596.757812 69.25 C 596.757812 71.378906 595.476562 73.195312 593.652344 74.011719 C 595.246094 87.886719 603.554688 92.511719 603.554688 93.699219 C 603.554688 94.300781 597.121094 97.773438 595.59375 97.773438 C 593.226562 97.773438 587.554688 93.765625 587.554688 85.105469 C 587.554688 80.003906 588.015625 76.148438 588.5 73.414062 C 587.195312 72.464844 586.285156 70.992188 586.285156 69.25 C 586.285156 67.347656 587.347656 65.757812 588.867188 64.839844 C 588.007812 53.515625 584.507812 51.621094 576.039062 48.109375 C 575.191406 47.773438 573.589844 47.125 572.667969 46.742188 C 571.003906 46.058594 569.5 45.449219 568.058594 44.871094 C 563.398438 43.019531 559.464844 41.53125 556.460938 40.425781 C 553.171875 39.253906 551.695312 38.828125 551.644531 38.808594 C 550.386719 38.386719 548.984375 39.066406 548.550781 40.351562 C 548.125 41.628906 548.808594 43.015625 550.089844 43.445312 C 550.1875 43.480469 555.910156 45.113281 570.796875 51.265625 C 571.753906 51.664062 572.667969 52.019531 573.535156 52.363281 C 575.296875 53.058594 576.761719 53.617188 577.988281 54.179688 L 551.414062 63.035156 C 551.203125 63.101562 550.992188 63.136719 550.773438 63.136719 C 550.550781 63.136719 550.339844 63.101562 550.128906 63.03125 L 501.230469 46.730469 C 500.398438 46.453125 499.835938 45.675781 499.835938 44.800781 C 499.835938 43.925781 500.398438 43.144531 501.230469 42.867188 Z M 501.230469 42.867188 " fill-opacity="1" fill-rule="nonzero"/></g><g fill="#3c7891" fill-opacity="1"><g transform="translate(51.061322, 164.873761)"><g><path d="M 98.953125 0 L 93.75 -65.21875 L 93.078125 -65.21875 L 70.546875 -0.671875 L 55.609375 -0.671875 L 33.078125 -65.21875 L 32.40625 -65.21875 L 27.203125 0 L 2.140625 0 L 12 -110.015625 L 38.671875 -110.015625 L 63.078125 -46.546875 L 87.484375 -110.015625 L 114.15625 -110.015625 L 124.03125 0 Z M 98.953125 0 "/></g></g></g><g fill="#3c7891" fill-opacity="1"><g transform="translate(177.208176, 164.873761)"><g><path d="M -4 -110.015625 L 26.140625 -110.015625 L 49.078125 -74.8125 L 72.015625 -110.015625 L 102.15625 -110.015625 L 61.609375 -49.34375 L 61.609375 0 L 36.546875 0 L 36.546875 -49.34375 Z M -4 -110.015625 "/></g></g></g><g fill="#8aaebd" fill-opacity="1"><g transform="translate(288.083136, 164.873761)"><g><path d="M 1.0625 -88.015625 L 1.0625 -110.015625 L 78.421875 -110.015625 L 78.421875 -88.015625 L 52.28125 -88.015625 L 52.28125 0 L 27.203125 0 L 27.203125 -88.015625 Z M 1.0625 -88.015625 "/></g></g></g><g fill="#8aaebd" fill-opacity="1"><g transform="translate(367.558319, 164.873761)"><g><path d="M 30.265625 -68.40625 L 30.265625 -35.875 C 30.265625 -29.113281 31.285156 -24.3125 33.328125 -21.46875 C 35.378906 -18.625 38.847656 -17.203125 43.734375 -17.203125 C 48.628906 -17.203125 52.097656 -18.625 54.140625 -21.46875 C 56.191406 -24.3125 57.21875 -29.113281 57.21875 -35.875 L 57.21875 -68.40625 L 80.8125 -68.40625 L 80.8125 -30.140625 C 80.8125 -18.753906 77.851562 -10.550781 71.9375 -5.53125 C 66.03125 -0.507812 56.628906 2 43.734375 2 C 30.847656 2 21.445312 -0.507812 15.53125 -5.53125 C 9.625 -10.550781 6.671875 -18.753906 6.671875 -30.140625 L 6.671875 -68.40625 Z M 30.265625 -68.40625 "/></g></g></g><g fill="#8aaebd" fill-opacity="1"><g transform="translate(455.034363, 164.873761)"><g><path d="M 12 -68.40625 L 12 -93.890625 L 35.609375 -93.890625 L 35.609375 -68.40625 L 50.015625 -68.40625 L 50.015625 -50.40625 L 35.609375 -50.40625 L 35.609375 -28.671875 C 35.609375 -22.359375 37.382812 -19.203125 40.9375 -19.203125 C 41.832031 -19.203125 42.765625 -19.378906 43.734375 -19.734375 C 44.710938 -20.085938 45.472656 -20.441406 46.015625 -20.796875 L 46.8125 -21.34375 L 52.671875 -2.265625 C 47.609375 0.578125 41.832031 2 35.34375 2 C 30.894531 2 27.070312 1.222656 23.875 -0.328125 C 20.675781 -1.890625 18.253906 -3.976562 16.609375 -6.59375 C 14.960938 -9.21875 13.78125 -11.972656 13.0625 -14.859375 C 12.351562 -17.753906 12 -20.847656 12 -24.140625 L 12 -50.40625 L 2.140625 -50.40625 L 2.140625 -68.40625 Z M 12 -68.40625 "/></g></g></g><g fill="#8aaebd" fill-opacity="1"><g transform="translate(507.706684, 164.873761)"><g><path d="M 14.46875 -8.125 C 6.863281 -14.882812 3.0625 -23.554688 3.0625 -34.140625 C 3.0625 -44.722656 7.019531 -53.410156 14.9375 -60.203125 C 22.851562 -67.003906 32.632812 -70.40625 44.28125 -70.40625 C 55.75 -70.40625 65.414062 -66.984375 73.28125 -60.140625 C 81.144531 -53.296875 85.078125 -44.628906 85.078125 -34.140625 C 85.078125 -23.648438 81.234375 -15.003906 73.546875 -8.203125 C 65.859375 -1.398438 56.101562 2 44.28125 2 C 32.007812 2 22.070312 -1.375 14.46875 -8.125 Z M 32.734375 -45.734375 C 29.671875 -42.710938 28.140625 -38.847656 28.140625 -34.140625 C 28.140625 -29.429688 29.601562 -25.585938 32.53125 -22.609375 C 35.46875 -19.628906 39.335938 -18.140625 44.140625 -18.140625 C 48.765625 -18.140625 52.566406 -19.648438 55.546875 -22.671875 C 58.523438 -25.691406 60.015625 -29.515625 60.015625 -34.140625 C 60.015625 -38.847656 58.476562 -42.710938 55.40625 -45.734375 C 52.34375 -48.765625 48.585938 -50.28125 44.140625 -50.28125 C 39.609375 -50.28125 35.804688 -48.765625 32.734375 -45.734375 Z M 32.734375 -45.734375 "/></g></g></g><g fill="#8aaebd" fill-opacity="1"><g transform="translate(595.849461, 164.873761)"><g><path d="M 8 0 L 8 -68.40625 L 31.609375 -68.40625 L 31.609375 -58.546875 L 31.875 -58.546875 C 32.050781 -58.898438 32.335938 -59.34375 32.734375 -59.875 C 33.140625 -60.40625 34.007812 -61.335938 35.34375 -62.671875 C 36.675781 -64.003906 38.097656 -65.203125 39.609375 -66.265625 C 41.117188 -67.335938 43.070312 -68.296875 45.46875 -69.140625 C 47.875 -69.984375 50.320312 -70.40625 52.8125 -70.40625 C 55.382812 -70.40625 57.914062 -70.050781 60.40625 -69.34375 C 62.894531 -68.632812 64.71875 -67.925781 65.875 -67.21875 L 67.75 -66.140625 L 57.875 -46.140625 C 54.945312 -48.628906 50.859375 -49.875 45.609375 -49.875 C 42.765625 -49.875 40.316406 -49.25 38.265625 -48 C 36.222656 -46.757812 34.78125 -45.25 33.9375 -43.46875 C 33.09375 -41.695312 32.492188 -40.1875 32.140625 -38.9375 C 31.785156 -37.695312 31.609375 -36.71875 31.609375 -36 L 31.609375 0 Z M 8 0 "/></g></g></g></svg>